<svg xmlns="http://www.w3.org/2000/svg" viewBox="0 0 1440 900">
  <circle cx="87" cy="34" r="1" fill="white" opacity="0.75"/>
  <circle cx="223" cy="89" r="0.8" fill="white" opacity="0.45"/>
  <circle cx="445" cy="45" r="1.1" fill="white" opacity="0.65"/>
  <circle cx="634" cy="78" r="0.9" fill="white" opacity="0.38"/>
  <circle cx="812" cy="23" r="1" fill="white" opacity="0.80"/>
  <circle cx="967" cy="112" r="0.8" fill="white" opacity="0.42"/>
  <circle cx="1134" cy="56" r="0.9" fill="white" opacity="0.60"/>
  <circle cx="1289" cy="89" r="1" fill="white" opacity="0.38"/>
  <circle cx="1412" cy="34" r="0.8" fill="white" opacity="0.50"/>
  <circle cx="40" cy="67" r="0.9" fill="white" opacity="0.45"/>
  <circle cx="290" cy="23" r="0.8" fill="white" opacity="0.55"/>
  <circle cx="560" cy="134" r="1" fill="white" opacity="0.38"/>
  <circle cx="730" cy="56" r="0.9" fill="white" opacity="0.50"/>
  <circle cx="1000" cy="145" r="0.8" fill="white" opacity="0.52"/>
  <circle cx="1180" cy="112" r="0.9" fill="white" opacity="0.38"/>
  <circle cx="156" cy="178" r="0.9" fill="white" opacity="0.55"/>
  <circle cx="334" cy="212" r="1" fill="white" opacity="0.32"/>
  <circle cx="512" cy="189" r="0.8" fill="white" opacity="0.70"/>
  <circle cx="689" cy="234" r="1.1" fill="white" opacity="0.42"/>
  <circle cx="867" cy="167" r="0.9" fill="white" opacity="0.50"/>
  <circle cx="1045" cy="223" r="1" fill="white" opacity="0.38"/>
  <circle cx="1223" cy="189" r="0.8" fill="white" opacity="0.58"/>
  <circle cx="1378" cy="212" r="0.9" fill="white" opacity="0.45"/>
  <circle cx="19" cy="245" r="1" fill="white" opacity="0.55"/>
  <circle cx="400" cy="156" r="0.8" fill="white" opacity="0.45"/>
  <circle cx="750" cy="267" r="1.1" fill="white" opacity="0.38"/>
  <circle cx="1100" cy="156" r="0.9" fill="white" opacity="0.50"/>
  <circle cx="78" cy="312" r="1" fill="white" opacity="0.65"/>
  <circle cx="256" cy="345" r="0.8" fill="white" opacity="0.38"/>
  <circle cx="434" cy="289" r="1.1" fill="white" opacity="0.55"/>
  <circle cx="612" cy="334" r="0.9" fill="white" opacity="0.45"/>
  <circle cx="789" cy="312" r="1" fill="white" opacity="0.75"/>
  <circle cx="967" cy="367" r="0.8" fill="white" opacity="0.32"/>
  <circle cx="1145" cy="289" r="0.9" fill="white" opacity="0.50"/>
  <circle cx="1312" cy="334" r="1" fill="white" opacity="0.42"/>
  <circle cx="30" cy="400" r="0.8" fill="white" opacity="0.55"/>
  <circle cx="480" cy="412" r="1" fill="white" opacity="0.38"/>
  <circle cx="940" cy="400" r="0.9" fill="white" opacity="0.45"/>
  <circle cx="1380" cy="467" r="0.8" fill="white" opacity="0.58"/>
  <circle cx="167" cy="445" r="0.9" fill="white" opacity="0.58"/>
  <circle cx="345" cy="489" r="1" fill="white" opacity="0.38"/>
  <circle cx="523" cy="445" r="0.8" fill="white" opacity="0.65"/>
  <circle cx="701" cy="489" r="1.1" fill="white" opacity="0.45"/>
  <circle cx="878" cy="445" r="0.9" fill="white" opacity="0.55"/>
  <circle cx="1056" cy="489" r="1" fill="white" opacity="0.32"/>
  <circle cx="1234" cy="445" r="0.8" fill="white" opacity="0.62"/>
  <circle cx="89" cy="556" r="1" fill="white" opacity="0.45"/>
  <circle cx="267" cy="589" r="0.9" fill="white" opacity="0.65"/>
  <circle cx="445" cy="556" r="1.1" fill="white" opacity="0.38"/>
  <circle cx="623" cy="589" r="0.8" fill="white" opacity="0.55"/>
  <circle cx="801" cy="556" r="1" fill="white" opacity="0.75"/>
  <circle cx="978" cy="589" r="0.9" fill="white" opacity="0.32"/>
  <circle cx="1156" cy="556" r="0.8" fill="white" opacity="0.50"/>
  <circle cx="1334" cy="589" r="1" fill="white" opacity="0.42"/>
  <circle cx="200" cy="534" r="1.1" fill="white" opacity="0.38"/>
  <circle cx="660" cy="512" r="0.9" fill="white" opacity="0.50"/>
  <circle cx="1200" cy="534" r="1" fill="white" opacity="0.38"/>
  <circle cx="178" cy="667" r="0.9" fill="white" opacity="0.55"/>
  <circle cx="356" cy="701" r="1" fill="white" opacity="0.38"/>
  <circle cx="534" cy="667" r="0.8" fill="white" opacity="0.65"/>
  <circle cx="712" cy="701" r="1.1" fill="white" opacity="0.45"/>
  <circle cx="889" cy="667" r="0.9" fill="white" opacity="0.58"/>
  <circle cx="1067" cy="701" r="1" fill="white" opacity="0.38"/>
  <circle cx="1245" cy="667" r="0.8" fill="white" opacity="0.50"/>
  <circle cx="50" cy="623" r="0.8" fill="white" opacity="0.55"/>
  <circle cx="400" cy="645" r="0.9" fill="white" opacity="0.45"/>
  <circle cx="1000" cy="623" r="1" fill="white" opacity="0.38"/>
  <circle cx="1400" cy="634" r="0.8" fill="white" opacity="0.58"/>
  <circle cx="67" cy="778" r="1" fill="white" opacity="0.62"/>
  <circle cx="245" cy="812" r="0.9" fill="white" opacity="0.38"/>
  <circle cx="423" cy="778" r="1.1" fill="white" opacity="0.55"/>
  <circle cx="601" cy="812" r="0.8" fill="white" opacity="0.45"/>
  <circle cx="779" cy="778" r="1" fill="white" opacity="0.68"/>
  <circle cx="956" cy="812" r="0.9" fill="white" opacity="0.38"/>
  <circle cx="1134" cy="778" r="0.8" fill="white" opacity="0.55"/>
  <circle cx="1312" cy="812" r="1" fill="white" opacity="0.42"/>
  <circle cx="150" cy="745" r="0.9" fill="white" opacity="0.50"/>
  <circle cx="560" cy="756" r="1.1" fill="white" opacity="0.38"/>
  <circle cx="900" cy="734" r="0.8" fill="white" opacity="0.55"/>
  <circle cx="1250" cy="745" r="0.9" fill="white" opacity="0.38"/>
  <circle cx="189" cy="867" r="0.9" fill="white" opacity="0.50"/>
  <circle cx="310" cy="823" r="1" fill="white" opacity="0.45"/>
  <circle cx="434" cy="845" r="1" fill="white" opacity="0.38"/>
  <circle cx="500" cy="890" r="0.8" fill="white" opacity="0.42"/>
  <circle cx="689" cy="878" r="0.8" fill="white" opacity="0.58"/>
  <circle cx="700" cy="834" r="0.8" fill="white" opacity="0.58"/>
  <circle cx="944" cy="845" r="1.1" fill="white" opacity="0.45"/>
  <circle cx="1050" cy="856" r="0.9" fill="white" opacity="0.38"/>
  <circle cx="1199" cy="878" r="0.9" fill="white" opacity="0.38"/>
  <circle cx="1350" cy="823" r="1" fill="white" opacity="0.50"/>
</svg>
