<svg width="60" height="60" viewBox="0 0 60 60" fill="none" xmlns="http://www.w3.org/2000/svg">
<g clip-path="url(#clip0_1100_10030)">
<rect width="60" height="60" rx="30" fill="url(#paint0_linear_1100_10030)"/>
<path d="M36.4005 35.2V40.8H23.6005C23.6005 40.8 23.6245 32.52 23.6005 27.0376C20.7341 23.3222 20.7341 21 23.0005 18.6C25.2669 16.2 41.4005 15 41.4005 15C41.4005 15 42.6109 26.642 42.8005 29.8C42.8767 31.07 43.7005 35.2 40.5005 35.2H36.4005Z" fill="url(#paint1_linear_1100_10030)"/>
<path d="M36.4 34.7994C33.7949 34.5153 31.276 33.6984 29 32.3994C29 32.3994 30.4 36.1994 36.4 37.3994V34.7994Z" fill="#F08956"/>
<path d="M26.2038 21.0407C25.5678 20.4945 24.795 20.1267 23.7026 20.6943C21.1128 22.0389 22.8316 27.2265 25.7298 27.1253C26.7298 27.0905 26.2714 29.0833 23.5998 30.3995C23.5998 28.2995 20.3998 23.0995 20.1198 18.3651C16.8998 17.1661 17.6998 12.3687 19.9104 12.3687C19.5576 7.97054 26.5998 5.69894 29.3266 8.22274C32.0998 4.89894 39.0998 6.59894 39.5224 9.48254C44.3358 6.91314 47.4998 14.2989 42.9928 17.1661C41.1382 18.3461 36.7998 18.7951 30.5372 18.7951C27.532 18.7951 29.2602 25.8291 30.1998 28.0995C31.3998 30.9995 38.0998 31.3995 40.1998 31.0995C41.8398 30.8653 42.6998 30.1995 42.7998 29.7995C44.2998 33.7995 42.3998 36.1995 39.3998 36.1995C34.2998 36.1995 29.1998 34.6995 28.3998 30.9995C27.763 28.0549 27.798 23.3027 26.2038 21.0407Z" fill="white"/>
<path d="M51 48.6606C52.2693 51.2416 53.2693 55.5082 54 61.4606H6C6.73093 55.5076 7.73093 51.2409 9 48.6606C10.2648 46.0886 22 41.1388 22 41.1388C22 41.1388 22.2336 38.8762 22.8 38.5518C23.3664 38.2274 36.5254 38.2276 37.2 38.5518C37.8746 38.876 38 41.1376 38 41.1376C38 41.1376 49.7376 46.094 51 48.6606Z" fill="url(#paint2_linear_1100_10030)"/>
<mask id="mask0_1100_10030" style="mask-type:alpha" maskUnits="userSpaceOnUse" x="6" y="38" width="48" height="24">
<path d="M51 48.6606C52.2693 51.2416 53.2693 55.5082 54 61.4606H6C6.73093 55.5076 7.73093 51.2409 9 48.6606C10.2648 46.0886 22 41.1388 22 41.1388C22 41.1388 22.2336 38.8762 22.8 38.5518C23.3664 38.2274 36.5254 38.2276 37.2 38.5518C37.8746 38.876 38 41.1376 38 41.1376C38 41.1376 49.7376 46.094 51 48.6606Z" fill="url(#paint3_linear_1100_10030)"/>
</mask>
<g mask="url(#mask0_1100_10030)">
<path d="M2.80078 58.7992V57.1992H56.6008V58.7992H2.80078ZM2.80078 54.7992V53.1992H56.6008V54.7992H2.80078ZM2.80078 50.7992V49.1992H56.6008V50.7992H2.80078ZM2.80078 46.7992V45.1992H56.6008V46.7992H2.80078Z" fill="#FFA789"/>
</g>
</g>
<defs>
<linearGradient id="paint0_linear_1100_10030" x1="30" y1="0" x2="30" y2="60" gradientUnits="userSpaceOnUse">
<stop stop-color="#806A6A"/>
<stop offset="1" stop-color="#665654"/>
</linearGradient>
<linearGradient id="paint1_linear_1100_10030" x1="32.16" y1="15" x2="32.16" y2="40.8" gradientUnits="userSpaceOnUse">
<stop stop-color="#F7B186"/>
<stop offset="1" stop-color="#FFC299"/>
</linearGradient>
<linearGradient id="paint2_linear_1100_10030" x1="30" y1="61.4606" x2="30" y2="38.3086" gradientUnits="userSpaceOnUse">
<stop stop-color="#FFC9B3"/>
<stop offset="1" stop-color="#FFD2C2"/>
</linearGradient>
<linearGradient id="paint3_linear_1100_10030" x1="30" y1="61.4606" x2="30" y2="38.3086" gradientUnits="userSpaceOnUse">
<stop stop-color="#FFC9B3"/>
<stop offset="1" stop-color="#FFD2C2"/>
</linearGradient>
<clipPath id="clip0_1100_10030">
<rect width="60" height="60" rx="30" fill="white"/>
</clipPath>
</defs>
</svg>
