<svg width="60" height="60" viewBox="0 0 60 60" fill="none" xmlns="http://www.w3.org/2000/svg">
<g clip-path="url(#clip0_1100_10021)">
<rect width="60" height="60" rx="30" fill="url(#paint0_linear_1100_10021)"/>
<path d="M36.1992 34.7998V37.1998C36.1992 40.3998 40.7992 41.7998 40.7992 41.7998C40.7992 41.7998 35.4992 45.7998 29.9992 45.7998C24.4992 45.7998 19.1992 41.7998 19.1992 41.7998C19.1992 41.7998 23.8354 40.3998 23.7992 37.1998C23.763 33.9998 23.7872 32.1198 23.763 26.6374C20.8966 22.922 21.0806 20.4284 22.648 18.6748C27.8992 12.7998 42.1992 14.7998 42.1992 14.7998C42.1992 14.7998 43.5336 29.1984 40.4992 33.3998C39.1992 35.1998 36.1992 34.7998 36.1992 34.7998Z" fill="url(#paint1_linear_1100_10021)"/>
<path d="M36.1992 34.7994C31.7992 34.2994 29.1992 32.3994 29.1992 32.3994C30.8407 34.8279 33.3424 36.5433 36.1992 37.1994V34.7994Z" fill="#FFDBC9"/>
<path d="M51 47.861C52.904 51.7324 54 60.661 54 60.661H6C6 60.661 7.0964 51.7314 9 47.861C10.9036 43.9906 22.02 40.4008 22.02 40.4008C24.1626 44.7994 35.9216 44.7994 37.9742 40.3994C37.9742 40.3994 49.096 43.9896 51 47.861Z" fill="url(#paint2_linear_1100_10021)"/>
<path d="M29.1992 55.5998C29.1992 55.4416 29.2461 55.2869 29.334 55.1553C29.4219 55.0238 29.5469 54.9213 29.6931 54.8607C29.8393 54.8002 30.0001 54.7843 30.1553 54.8152C30.3105 54.846 30.453 54.9222 30.5649 55.0341C30.6768 55.146 30.753 55.2885 30.7838 55.4437C30.8147 55.5989 30.7989 55.7598 30.7383 55.906C30.6778 56.0521 30.5752 56.1771 30.4437 56.265C30.3121 56.3529 30.1574 56.3998 29.9992 56.3998C29.787 56.3998 29.5836 56.3155 29.4335 56.1655C29.2835 56.0155 29.1992 55.812 29.1992 55.5998ZM29.1992 51.5998C29.1992 51.4416 29.2461 51.2869 29.334 51.1553C29.4219 51.0238 29.5469 50.9213 29.6931 50.8607C29.8393 50.8002 30.0001 50.7843 30.1553 50.8152C30.3105 50.846 30.453 50.9222 30.5649 51.0341C30.6768 51.146 30.753 51.2885 30.7838 51.4437C30.8147 51.5989 30.7989 51.7598 30.7383 51.906C30.6778 52.0521 30.5752 52.1771 30.4437 52.265C30.3121 52.3529 30.1574 52.3998 29.9992 52.3998C29.787 52.3998 29.5836 52.3155 29.4335 52.1655C29.2835 52.0155 29.1992 51.812 29.1992 51.5998ZM29.1992 47.5998C29.1992 47.4416 29.2461 47.2869 29.334 47.1553C29.4219 47.0238 29.5469 46.9213 29.6931 46.8607C29.8393 46.8002 30.0001 46.7843 30.1553 46.8152C30.3105 46.846 30.453 46.9222 30.5649 47.0341C30.6768 47.146 30.753 47.2885 30.7838 47.4437C30.8147 47.5989 30.7989 47.7598 30.7383 47.906C30.6778 48.0521 30.5752 48.1771 30.4437 48.265C30.3121 48.3529 30.1574 48.3998 29.9992 48.3998C29.787 48.3998 29.5836 48.3155 29.4335 48.1655C29.2835 48.0155 29.1992 47.812 29.1992 47.5998Z" fill="white"/>
<path d="M26.2311 20.6413C25.5951 20.0951 26.4259 42.0986 25.3335 42.6662C22.7437 44.0108 17.7002 42.6662 20.0002 42.6662C19.6668 43.3328 18.0002 43.3328 18.6668 41.9995C18.6668 39.8995 20.4271 22.6995 20.1471 17.9651C16.9271 16.7661 17.7271 11.9687 19.9377 11.9687C19.5849 7.57113 26.6271 5.29953 29.3539 7.82333C32.1271 4.49953 39.1271 6.19953 39.5497 9.08313C44.3631 6.51373 47.5271 13.8995 43.0201 16.7667C41.1655 17.9467 36.8271 18.3957 30.5645 18.3957C29.6191 18.3957 29.0895 18.6305 29.3539 19.7995C29.8657 22.0647 28.6775 23.4915 26.2311 20.6413Z" fill="url(#paint3_linear_1100_10021)"/>
</g>
<defs>
<linearGradient id="paint0_linear_1100_10021" x1="30" y1="0" x2="30" y2="60" gradientUnits="userSpaceOnUse">
<stop stop-color="#1D0024"/>
<stop offset="1" stop-color="#100014"/>
</linearGradient>
<linearGradient id="paint1_linear_1100_10021" x1="30.8453" y1="14.4717" x2="30.8453" y2="45.7998" gradientUnits="userSpaceOnUse">
<stop stop-color="#FFD4B3"/>
<stop offset="1" stop-color="#FFDCC2"/>
</linearGradient>
<linearGradient id="paint2_linear_1100_10021" x1="30" y1="40.3994" x2="30" y2="60.661" gradientUnits="userSpaceOnUse">
<stop stop-color="#806A6A"/>
<stop offset="1" stop-color="#665654"/>
</linearGradient>
<linearGradient id="paint3_linear_1100_10021" x1="31.5968" y1="29.9995" x2="31.5968" y2="5.99902" gradientUnits="userSpaceOnUse">
<stop stop-color="#E6864E"/>
<stop offset="1" stop-color="#E67240"/>
</linearGradient>
<clipPath id="clip0_1100_10021">
<rect width="60" height="60" rx="30" fill="white"/>
</clipPath>
</defs>
</svg>
